<svg width="206" height="165" viewBox="0 0 206 165" fill="none" xmlns="http://www.w3.org/2000/svg">
<path d="M193.5 24.7911C172.701 -3.29737 145.511 -1.11617 96.5 3.00001C73.9596 4.89306 62.0859 10.3387 43.6525 24.7911C25.2192 39.2435 -6.38684 30.8596 -14.5 53C-22.6131 75.1404 -6.86905 126.811 -1.92738 149.177C3.01429 171.542 14.3685 191.514 30.6993 206.567C47.0301 221.619 67.6042 231.076 89.8198 233.742C112.035 236.408 134.895 232.162 155.507 221.542C176.119 210.923 193.558 194.406 205.62 174.08C205.62 174.08 168.471 165.066 155.507 132C139.487 91.1385 221.638 62.7913 193.5 24.7911Z" fill="#DA8BC1"/>
</svg>
