<svg width="191" height="132" viewBox="0 0 191 132" fill="none" xmlns="http://www.w3.org/2000/svg">
<rect x="104" y="48" width="18" height="18" rx="9" fill="#FCFAF2"/>
<rect x="68" y="48" width="18" height="18" rx="9" fill="#FCFAF2"/>
<rect x="32" y="48" width="18" height="18" rx="9" fill="#FCFAF2"/>
<rect x="32" y="75" width="18" height="18" rx="9" fill="#FCFAF2"/>
<rect x="68" y="75" width="18" height="18" rx="9" fill="#FCFAF2"/>
<rect x="104" y="75" width="18" height="18" rx="9" fill="#FCFAF2"/>
<rect x="140" y="48" width="18" height="18" rx="9" fill="#FCFAF2"/>
<rect x="140" y="21" width="18" height="18" rx="9" fill="#FCFAF2"/>
<rect x="104" y="21" width="18" height="18" rx="9" fill="#FCFAF2"/>
<rect x="68" y="21" width="18" height="18" rx="9" fill="#FCFAF2"/>
<rect x="32" y="21" width="18" height="18" rx="9" fill="#FCFAF2"/>
<rect x="140" y="75" width="18" height="18" rx="9" fill="#FCFAF2"/>
<path d="M182.5 4H8C5.79086 4 4 5.79086 4 8V123.5C4 125.709 5.79086 127.5 8 127.5H182.5C184.709 127.5 186.5 125.709 186.5 123.5V8C186.5 5.79086 184.709 4 182.5 4Z" stroke="#FCFAF2" stroke-width="8" stroke-linecap="round" stroke-linejoin="round" stroke-dasharray="16 16"/>
</svg>
