<svg width="219" height="240" viewBox="0 0 219 240" fill="none" xmlns="http://www.w3.org/2000/svg">
<path d="M137.647 186.972L139.413 190.561L139.413 190.561L137.647 186.972ZM76.1009 99.9252L73.3554 102.834L73.3554 102.834L76.1009 99.9252ZM112.988 2.11505C111.403 0.576162 108.87 0.613521 107.331 2.19849L82.2539 28.0271C80.715 29.612 80.7523 32.1444 82.3373 33.6833C83.9223 35.2222 86.4547 35.1848 87.9935 33.5999L110.285 10.6411L133.243 32.9323C134.828 34.4712 137.361 34.4338 138.9 32.8489C140.439 31.2639 140.401 28.7315 138.816 27.1926L112.988 2.11505ZM150.5 168.5L154.487 168.823L154.527 168.325L154.444 167.831L150.5 168.5ZM144 154L141.586 157.189L141.586 157.189L144 154ZM130.5 147.5L131.072 143.541L131.072 143.541L130.5 147.5ZM110.276 238.519C110.407 230.778 110.313 227.48 110.234 223.399C110.157 219.376 110.092 214.519 110.276 203.567L102.278 203.433C102.092 214.478 102.156 219.431 102.236 223.553C102.314 227.615 102.405 230.794 102.278 238.385L110.276 238.519ZM110.276 203.567C110.321 200.944 111.269 199.338 112.726 198.113C114.361 196.738 116.824 195.705 120.019 194.891C123.203 194.08 126.593 193.604 130.03 193.035C133.215 192.508 136.773 191.86 139.413 190.561L135.88 183.383C134.485 184.07 132.136 184.577 128.723 185.142C125.562 185.665 121.661 186.217 118.044 187.138C114.437 188.057 110.587 189.459 107.577 191.99C104.39 194.671 102.361 198.442 102.278 203.433L110.276 203.567ZM111.806 135.567C111.921 128.711 111.955 125.5 111.946 124.206C111.944 123.912 111.939 123.599 111.921 123.354C111.917 123.291 111.906 123.152 111.881 122.987C111.869 122.909 111.842 122.743 111.788 122.54C111.775 122.492 111.616 121.809 111.094 121.128C110.817 120.768 110.066 119.918 108.721 119.643C107.194 119.33 106 119.96 105.379 120.47C104.828 120.922 104.538 121.409 104.428 121.604C104.293 121.845 104.21 122.051 104.166 122.168C104.022 122.554 103.969 122.889 103.965 122.914C103.897 123.306 103.857 123.99 103.84 124.237C103.81 124.692 103.788 125.043 103.772 125.215C103.768 125.262 103.771 125.216 103.784 125.13C103.786 125.114 103.812 124.931 103.877 124.697C103.897 124.628 103.998 124.249 104.243 123.815C104.352 123.621 104.671 123.08 105.298 122.602C106.055 122.023 107.4 121.472 108.955 121.974C110.209 122.38 110.846 123.253 111.047 123.554C111.298 123.929 111.427 124.261 111.482 124.412C111.597 124.73 111.643 124.988 111.656 125.061C111.69 125.251 111.7 125.394 111.701 125.409C111.706 125.474 111.705 125.494 111.704 125.419C111.689 124.788 111.706 122.49 111.806 116.567L103.807 116.433C103.709 122.259 103.686 124.772 103.706 125.611C103.709 125.719 103.713 125.87 103.725 126.022C103.729 126.08 103.743 126.255 103.781 126.466C103.796 126.55 103.844 126.816 103.961 127.139C104.017 127.293 104.147 127.627 104.399 128.003C104.601 128.306 105.238 129.181 106.494 129.586C108.05 130.089 109.396 129.538 110.155 128.958C110.783 128.479 111.103 127.937 111.213 127.741C111.46 127.303 111.563 126.918 111.585 126.84C111.655 126.589 111.686 126.38 111.693 126.332C111.716 126.179 111.73 126.035 111.737 125.96C111.767 125.644 111.799 125.121 111.823 124.764C111.86 124.199 111.873 124.133 111.846 124.287C111.839 124.326 111.826 124.397 111.805 124.486C111.789 124.556 111.745 124.74 111.66 124.968C111.617 125.083 111.536 125.286 111.401 125.524C111.293 125.718 111.003 126.203 110.454 126.654C109.834 127.163 108.641 127.793 107.115 127.48C105.771 127.205 105.022 126.356 104.746 125.997C104.226 125.319 104.069 124.642 104.058 124.601C104.006 124.406 103.981 124.251 103.971 124.186C103.95 124.046 103.943 123.944 103.942 123.929C103.938 123.878 103.944 123.942 103.946 124.265C103.955 125.44 103.923 128.541 103.807 135.433L111.806 135.567ZM111.806 116.567C111.844 114.28 111.447 112.177 110.518 110.314C109.582 108.434 108.216 107.02 106.655 105.962C103.708 103.965 99.9072 103.159 96.6052 102.594C92.9888 101.976 89.7265 101.609 86.4632 100.766C83.3037 99.9487 80.7451 98.8082 78.8463 97.0162L73.3554 102.834C76.6398 105.934 80.6659 107.53 84.4605 108.511C88.1513 109.465 92.2124 109.959 95.2565 110.48C98.615 111.054 100.812 111.666 102.168 112.585C102.757 112.984 103.119 113.402 103.358 113.881C103.604 114.375 103.828 115.157 103.807 116.433L111.806 116.567ZM78.8463 97.0162C73.812 92.2649 71.9382 87.4315 72.1065 83.0982C72.2766 78.7193 74.561 74.1115 79.3016 69.9295L74.0093 63.9302C68.0606 69.1779 64.3876 75.7069 64.1125 82.7878C63.8358 89.9143 67.0293 96.8638 73.3554 102.834L78.8463 97.0162ZM79.3016 69.9295C81.1738 68.2779 83.7402 67.3409 87.1067 66.6953C88.7772 66.375 90.5167 66.1473 92.3849 65.9036C94.2075 65.6657 96.1655 65.411 98.0612 65.041C101.806 64.3102 105.95 63.023 109.131 59.842C112.414 56.5599 114.095 51.8667 114.201 45.5672L106.202 45.4328C106.119 50.3817 104.847 52.8127 103.475 54.1844C102.002 55.6572 99.7868 56.5534 96.5289 57.1892C94.9231 57.5025 93.2185 57.727 91.3497 57.9708C89.5266 58.2087 87.546 58.4653 85.6001 58.8385C81.7337 59.5799 77.4818 60.8669 74.0093 63.9302L79.3016 69.9295ZM114.201 45.5672C114.361 36.0567 114.36 25.8952 114.321 18.1203C114.301 14.2308 114.271 10.9342 114.246 8.60936C114.233 7.44686 114.222 6.52712 114.214 5.89747C114.21 5.58264 114.207 5.34032 114.204 5.17642C114.203 5.09447 114.202 5.03212 114.202 4.99012C114.201 4.96912 114.201 4.95321 114.201 4.94247C114.201 4.9371 114.201 4.93303 114.201 4.93026C114.201 4.92887 114.201 4.92782 114.201 4.92709C114.201 4.92672 114.201 4.92642 114.201 4.92624C114.201 4.92602 114.201 4.92588 110.201 4.98489C106.202 5.04389 106.202 5.04392 106.202 5.04403C106.202 5.04418 106.202 5.04437 106.202 5.04466C106.202 5.04525 106.202 5.04616 106.202 5.0474C106.202 5.04987 106.202 5.05365 106.202 5.05873C106.202 5.06888 106.202 5.0842 106.203 5.10461C106.203 5.14541 106.204 5.20654 106.205 5.28725C106.207 5.44867 106.211 5.68842 106.215 6.00059C106.223 6.62492 106.234 7.53887 106.246 8.69515C106.271 11.0079 106.301 14.2892 106.321 18.1613C106.36 25.9095 106.36 36.0056 106.202 45.4328L114.201 45.5672ZM139.413 190.561C143.862 188.371 147.49 185.624 150.093 181.937C152.706 178.235 154.077 173.881 154.487 168.823L146.513 168.177C146.191 172.143 145.17 175.039 143.557 177.324C141.934 179.624 139.502 181.601 135.88 183.383L139.413 190.561ZM150.5 168.5C154.444 167.831 154.444 167.83 154.443 167.83C154.443 167.829 154.443 167.828 154.443 167.828C154.443 167.826 154.443 167.825 154.442 167.823C154.442 167.82 154.441 167.816 154.44 167.812C154.439 167.803 154.437 167.791 154.434 167.777C154.429 167.748 154.422 167.709 154.413 167.66C154.396 167.563 154.37 167.426 154.337 167.254C154.27 166.911 154.17 166.427 154.036 165.839C153.77 164.67 153.361 163.061 152.789 161.319C152.222 159.589 151.467 157.644 150.487 155.838C149.531 154.077 148.217 152.175 146.414 150.811L141.586 157.189C142.101 157.579 142.758 158.367 143.455 159.653C144.129 160.895 144.709 162.356 145.188 163.813C145.662 165.257 146.008 166.615 146.236 167.616C146.349 168.114 146.432 168.516 146.485 168.788C146.511 168.923 146.531 169.026 146.542 169.091C146.548 169.124 146.552 169.147 146.555 169.16C146.556 169.167 146.557 169.171 146.557 169.172C146.557 169.173 146.557 169.173 146.557 169.173C146.557 169.172 146.557 169.172 146.557 169.171C146.557 169.171 146.557 169.17 146.557 169.17C146.556 169.17 146.556 169.169 150.5 168.5ZM146.414 150.811C144.045 149.018 141.988 147.359 139.721 146.144C137.283 144.837 134.695 144.065 131.072 143.541L129.928 151.459C132.928 151.893 134.555 152.451 135.942 153.195C137.501 154.031 138.883 155.143 141.586 157.189L146.414 150.811ZM131.072 143.541C125.775 142.776 120.614 142.134 116.701 140.661C114.792 139.943 113.543 139.149 112.803 138.346C112.164 137.651 111.785 136.832 111.806 135.567L103.807 135.433C103.751 138.774 104.902 141.575 106.918 143.765C108.835 145.846 111.368 147.202 113.883 148.149C118.821 150.007 125.084 150.759 129.928 151.459L131.072 143.541Z" fill="#FCFAF2"/>
<circle cx="100.5" cy="83.5" r="8.5" fill="#FCFAF2"/>
<circle cx="119.5" cy="168.5" r="8.5" fill="#FCFAF2"/>
<path d="M119 83.5C119 78.8056 122.806 75 127.5 75H210.5C215.194 75 219 78.8056 219 83.5V83.5C219 88.1944 215.194 92 210.5 92H127.5C122.806 92 119 88.1944 119 83.5V83.5Z" fill="#FCFAF2"/>
<rect y="160" width="100" height="17" rx="8.5" fill="#FCFAF2"/>
</svg>
