<svg width="88" height="93" viewBox="0 0 88 93" fill="none" xmlns="http://www.w3.org/2000/svg">
<g filter="url(#filter0_d_164_456)">
<path d="M21.3519 85C20.9375 84.9995 20.5287 84.9041 20.1572 84.7211C19.8432 84.5658 19.563 84.3503 19.3328 84.0869C19.1026 83.8235 18.9268 83.5175 18.8156 83.1863C18.7043 82.8552 18.6598 82.5054 18.6846 82.157C18.7093 81.8087 18.8028 81.4687 18.9598 81.1564L22.944 73.1876C23.2601 72.5557 23.8154 72.0748 24.4875 71.8506C25.1597 71.6265 25.8937 71.6774 26.5281 71.9923C27.1626 72.3072 27.6454 72.8603 27.8705 73.5298C28.0955 74.1993 28.0443 74.9304 27.7282 75.5623L23.7467 83.5311C23.5243 83.9737 23.1823 84.3456 22.7592 84.6051C22.3362 84.8646 21.8488 85.0014 21.3519 85ZM71.1304 46.7229C70.0857 45.6828 70.0852 43.9917 71.1293 42.951C72.1678 41.9159 73.8477 41.9154 74.8868 42.9499L76.7727 44.8274C77.8174 45.8675 77.8179 47.5586 76.7738 48.5993C75.7353 49.6344 74.0554 49.6349 73.0163 48.6004L71.1304 46.7229ZM75.9996 29.2187C75.9996 27.7517 77.1889 26.5625 78.6559 26.5625H81.3438C82.8108 26.5625 84 27.7517 84 29.2187C84 30.6858 82.8108 31.875 81.3438 31.875H78.6559C77.1889 31.875 75.9996 30.6858 75.9996 29.2187ZM71.1296 15.4907C70.0854 14.4506 70.0854 12.76 71.1296 11.7199L73.0176 9.83928C74.056 8.80502 75.7352 8.80502 76.7736 9.83929C77.8177 10.8794 77.8177 12.57 76.7736 13.6101L74.8855 15.4907C73.8471 16.525 72.1679 16.525 71.1296 15.4907ZM51.9986 2.66679C51.9986 1.19396 53.1925 0 54.6654 0C56.1382 0 57.3322 1.19396 57.3322 2.66679V5.30196C57.3322 6.77479 56.1382 7.96875 54.6654 7.96875C53.1925 7.96875 51.9986 6.77479 51.9986 5.30196V2.66679ZM32.5572 13.6101C31.513 12.57 31.513 10.8794 32.5572 9.83928C33.5956 8.80502 35.2747 8.80502 36.3131 9.83928L38.2012 11.7199C39.2454 12.76 39.2454 14.4506 38.2012 15.4907C37.1628 16.525 35.4836 16.525 34.4453 15.4907L32.5572 13.6101ZM70.6661 29.2187C70.6708 25.6247 69.4548 22.1347 67.2156 19.3162C64.9765 16.4978 61.846 14.5168 58.3332 13.6952C54.8204 12.8737 51.1318 13.2599 47.8674 14.7912C44.6029 16.3224 41.9545 18.9086 40.3527 22.1292C38.5104 21.5589 36.5937 21.2626 34.6645 21.25C30.4175 21.272 26.2862 22.6311 22.8615 25.1329C19.4368 27.6348 16.8941 31.1512 15.597 35.1794C11.8885 36.2333 8.68772 38.5873 6.58492 41.8073C4.48212 45.0273 3.61915 48.896 4.15517 52.6999C4.69118 56.5039 6.59003 59.9865 9.50151 62.5055C12.413 65.0244 16.1407 66.4099 19.9972 66.4062H39.6834L36.2806 73.1876C36.111 73.5008 36.0064 73.8446 35.9728 74.1987C35.9393 74.5529 35.9775 74.9102 36.0851 75.2494C36.1928 75.5885 36.3678 75.9027 36.5997 76.1732C36.8316 76.4438 37.1157 76.6651 37.4352 76.8242C37.7546 76.9833 38.1029 77.0769 38.4593 77.0994C38.8158 77.1218 39.1731 77.0728 39.5101 76.9551C39.8471 76.8374 40.157 76.6535 40.4213 76.4142C40.6856 76.175 40.899 75.8853 41.0488 75.5623L45.649 66.4062H49.3318C52.1286 66.4131 54.8782 65.6879 57.305 64.3031C59.7318 62.9184 61.7507 60.9227 63.1594 58.5161C64.5682 56.1096 65.3173 53.3765 65.3317 50.5908C65.3462 47.805 64.6255 45.0644 63.2417 42.6434C65.5133 41.2087 67.3846 39.2261 68.6824 36.8795C69.9802 34.5328 70.6625 31.8979 70.6661 29.2187ZM49.3318 61.0937H19.9972C17.3259 61.0982 14.7504 60.1024 12.7818 58.3039C10.8131 56.5053 9.59504 54.0355 9.36914 51.3843C9.14324 48.733 9.92604 46.0941 11.5623 43.9908C13.1985 41.8876 15.5686 40.4737 18.2024 40.0297L19.9705 39.7322L20.3599 37.9897C21.0835 34.7475 22.8955 31.8481 25.4967 29.77C28.0978 27.6919 31.3327 26.5593 34.6672 26.5593C38.0017 26.5593 41.2365 27.6919 43.8376 29.77C46.4388 31.8481 48.2508 34.7475 48.9745 37.9897L49.3611 39.7322L51.1292 40.0323C53.7599 40.4799 56.126 41.8951 57.759 43.9977C59.3919 46.1003 60.1727 48.737 59.9466 51.3857C59.7206 54.0344 58.5042 56.502 56.5384 58.2999C54.5726 60.0978 52.0006 61.0949 49.3318 61.0937ZM59.8043 38.4891C58.0481 36.9545 55.9739 35.8245 53.7293 35.1794C52.2695 30.69 49.2603 26.8608 45.2356 24.3711C45.9936 22.8957 47.0887 21.6182 48.4328 20.6411C49.7768 19.6641 51.3323 19.0149 52.9741 18.7458C54.6159 18.4767 56.2983 18.5951 57.8858 19.0916C59.4733 19.5881 60.9216 20.4487 62.1143 21.6043C63.307 22.7599 64.2108 24.1782 64.7529 25.7451C65.2951 27.312 65.4605 28.9838 65.2358 30.6259C65.011 32.2681 64.4025 33.8348 63.4592 35.2C62.5158 36.5652 61.264 37.6935 59.8043 38.4891Z" fill="#FCFAF2"/>
</g>
<defs>
<filter id="filter0_d_164_456" x="0" y="0" width="88" height="93" filterUnits="userSpaceOnUse" color-interpolation-filters="sRGB">
<feFlood flood-opacity="0" result="BackgroundImageFix"/>
<feColorMatrix in="SourceAlpha" type="matrix" values="0 0 0 0 0 0 0 0 0 0 0 0 0 0 0 0 0 0 127 0" result="hardAlpha"/>
<feOffset dy="4"/>
<feGaussianBlur stdDeviation="2"/>
<feComposite in2="hardAlpha" operator="out"/>
<feColorMatrix type="matrix" values="0 0 0 0 0 0 0 0 0 0 0 0 0 0 0 0 0 0 0.25 0"/>
<feBlend mode="normal" in2="BackgroundImageFix" result="effect1_dropShadow_164_456"/>
<feBlend mode="normal" in="SourceGraphic" in2="effect1_dropShadow_164_456" result="shape"/>
</filter>
</defs>
</svg>
